<svg id="visual" viewBox="0 0 960 240" width="960" height="240" xmlns="http://www.w3.org/2000/svg" xmlns:xlink="http://www.w3.org/1999/xlink" version="1.1"><path d="M0 47L32 50.5C64 54 128 61 192 59.3C256 57.7 320 47.3 384 43.8C448 40.3 512 43.7 576 48C640 52.3 704 57.7 768 62C832 66.3 896 69.7 928 71.3L960 73L960 0L928 0C896 0 832 0 768 0C704 0 640 0 576 0C512 0 448 0 384 0C320 0 256 0 192 0C128 0 64 0 32 0L0 0Z" fill="#3889c0"></path><path d="M0 68L32 74.8C64 81.7 128 95.3 192 94.5C256 93.7 320 78.3 384 76.7C448 75 512 87 576 96.7C640 106.3 704 113.7 768 115.7C832 117.7 896 114.3 928 112.7L960 111L960 71L928 69.3C896 67.7 832 64.3 768 60C704 55.7 640 50.3 576 46C512 41.7 448 38.3 384 41.8C320 45.3 256 55.7 192 57.3C128 59 64 52 32 48.5L0 45Z" fill="#78a9d2"></path><path d="M0 171L32 167.8C64 164.7 128 158.3 192 159.2C256 160 320 168 384 176.8C448 185.7 512 195.3 576 192.2C640 189 704 173 768 167.8C832 162.7 896 168.3 928 171.2L960 174L960 109L928 110.7C896 112.3 832 115.7 768 113.7C704 111.7 640 104.3 576 94.7C512 85 448 73 384 74.7C320 76.3 256 91.7 192 92.5C128 93.3 64 79.7 32 72.8L0 66Z" fill="#adcae4"></path><path d="M0 241L32 241C64 241 128 241 192 241C256 241 320 241 384 241C448 241 512 241 576 241C640 241 704 241 768 241C832 241 896 241 928 241L960 241L960 172L928 169.2C896 166.3 832 160.7 768 165.8C704 171 640 187 576 190.2C512 193.3 448 183.7 384 174.8C320 166 256 158 192 157.2C128 156.3 64 162.7 32 165.8L0 169Z" fill="#e0ecf7"></path></svg>