<svg id="visual" viewBox="0 0 960 540" width="960" height="540" xmlns="http://www.w3.org/2000/svg" xmlns:xlink="http://www.w3.org/1999/xlink" version="1.1"><path d="M0 104L32 112C64 120 128 136 192 132.3C256 128.7 320 105.3 384 97.3C448 89.3 512 96.7 576 106.5C640 116.3 704 128.7 768 138.5C832 148.3 896 155.7 928 159.3L960 163L960 0L928 0C896 0 832 0 768 0C704 0 640 0 576 0C512 0 448 0 384 0C320 0 256 0 192 0C128 0 64 0 32 0L0 0Z" fill="#3889c0"></path><path d="M0 152L32 167.3C64 182.7 128 213.3 192 211.5C256 209.7 320 175.3 384 171.7C448 168 512 195 576 216.7C640 238.3 704 254.7 768 259.2C832 263.7 896 256.3 928 252.7L960 249L960 161L928 157.3C896 153.7 832 146.3 768 136.5C704 126.7 640 114.3 576 104.5C512 94.7 448 87.3 384 95.3C320 103.3 256 126.7 192 130.3C128 134 64 118 32 110L0 102Z" fill="#175b8f"></path><path d="M0 384L32 376.8C64 369.7 128 355.3 192 357.2C256 359 320 377 384 396.8C448 416.7 512 438.3 576 431.2C640 424 704 388 768 376.3C832 364.7 896 377.3 928 383.7L960 390L960 247L928 250.7C896 254.3 832 261.7 768 257.2C704 252.7 640 236.3 576 214.7C512 193 448 166 384 169.7C320 173.3 256 207.7 192 209.5C128 211.3 64 180.7 32 165.3L0 150Z" fill="#00315f"></path><path d="M0 541L32 541C64 541 128 541 192 541C256 541 320 541 384 541C448 541 512 541 576 541C640 541 704 541 768 541C832 541 896 541 928 541L960 541L960 388L928 381.7C896 375.3 832 362.7 768 374.3C704 386 640 422 576 429.2C512 436.3 448 414.7 384 394.8C320 375 256 357 192 355.2C128 353.3 64 367.7 32 374.8L0 382Z" fill="#000000"></path></svg>